<?xml version="1.0" encoding="utf-8"?>
<!-- Generator: Adobe Illustrator 26.0.0, SVG Export Plug-In . SVG Version: 6.00 Build 0)  -->
<svg version="1.1" id="Capa_1" xmlns="http://www.w3.org/2000/svg" xmlns:xlink="http://www.w3.org/1999/xlink" x="0px" y="0px"
	 viewBox="0 0 300 300" style="enable-background:new 0 0 300 300;" xml:space="preserve">
<style type="text/css">
	.st0{fill:#1A1818;}
	.st1{fill:#FFFFFF;stroke:#1A1818;stroke-width:6;stroke-miterlimit:10;}
</style>
<rect x="-4" y="-3" class="st0" width="308" height="307"/>
<path class="st1" d="M256.5,51.4c4.5-3.6,10-5.4,16.5-5.4v-2.5h-68.7v2.5c2.9,0,5.6,0.4,8.2,1.1l-9,22.1c-1.6-1.1-3.2-2.3-5-3.4
	c-6.1-4-13.3-7.6-21.6-10.9c-8.3-3.3-17.8-6-28.3-8c-10.5-2-22-3-34.5-3H83.3H29.6H25v2.5h3.1c4,0,7.6,0.8,10.8,2.5
	c3.2,1.7,5.8,4.4,7.8,8.1c1.9,3.7,2.9,8.3,2.9,13.8v163.1c0,5.7-1.8,11.1-5.3,16.1c-0.5,0.7-1,1.3-1.5,1.9c-0.3,0.3-0.5,0.5-0.8,0.8
	c-3.9,3.2-9.5,4.9-17,5v2.3v0h103.9c6,0,11.5-0.2,16.6-0.5l0.2,0.5l0.2-0.5c1.7-0.1,3.4-0.3,5-0.4l0.4,0.9l0.4-1
	c6.2-0.6,11.6-1.6,16.2-2.8c9.6-2.5,18.2-5.9,25.6-10c8.7-5,16.3-10.6,22.9-16.7c3.9-3.7,7.5-7.7,10.8-11.9v16.5
	c0,8.5-2.3,14.6-6.8,18.3c-4.6,3.7-10,5.5-16.3,5.5v2.4H273v-2.4c-0.3,0-0.6,0-0.8,0v-0.2c-1.5,0-2.8-0.1-4.1-0.3
	c-4-0.8-7.6-2.5-11.1-5.2c-4.8-3.8-7.2-9.8-7.2-18.2V69.5C249.8,61,252,55,256.5,51.4z M111.9,50.5c19.7,0,36.6,3.1,50.5,9.4
	c14,6.2,25.4,14.9,34.3,25.9l-48.2,118.8L86.8,52.2C96.4,51.1,104.8,50.5,111.9,50.5z M118.1,253.2c-11.7,0-20.7-0.6-26.7-1.8
	c-6.1-1.2-10.6-3.7-13.4-7.7c-2.9-4-4.3-10.1-4.3-18.6V83l68.9,168.9C135.1,252.8,127,253.2,118.1,253.2z M213.2,199
	c-4.8,11.4-11.2,21.1-19.2,29c-10.8,10.7-22,17.5-33.5,20.6c-1.6,0.4-3.3,0.8-5,1.2l56.4-138.2c1,2.5,1.9,5.1,2.7,7.7
	c3.9,12.6,5.8,25.3,5.8,38.1C220.4,173.7,218,187.5,213.2,199z M222.2,86.3l5.2-12.7v19.2C225.8,90.6,224,88.4,222.2,86.3z"/>
</svg>
