<?xml version="1.0" encoding="utf-8"?>
<!-- Generator: Adobe Illustrator 26.0.0, SVG Export Plug-In . SVG Version: 6.00 Build 0)  -->
<svg version="1.1" id="Capa_1" xmlns="http://www.w3.org/2000/svg" xmlns:xlink="http://www.w3.org/1999/xlink" x="0px" y="0px"
	 viewBox="0 0 200 200" style="enable-background:new 0 0 200 200;" xml:space="preserve">
<style type="text/css">
	.st0{fill:#FFFFFF;}
</style>
<path class="st0" d="M64.7,167c2.9,8.7,6.7,17,9.7,25.6c1,2.8,1.7,5.7,2,8.7h50.8c0.3-3.2,1-6.4,1.8-9.5
	c4.3-15.4,12.8-29.7,12.1-47.8c2.5,1.3,5,1.8,5.5,3c2.4,6.9,7.9,2.9,11.9,3.2c0.7,0.1,2.1-4.5,2.8-7.1c0.4-1.8,0.3-3.9-0.1-5.7
	c-0.3-1.2-1.8-3.1-2.5-3c-4.2,0.8-10.1-3.7-12.2,3.9c-0.3,1-2.9,1.4-5.3,2.4V98.8c2.4,1.5,5,2.1,5.6,3.6c2.6,6.3,7.7,2.7,11.6,3
	c0.9,0.1,2.4-4,3-6.3c0.5-2,0.3-4.3-0.1-6.3c-0.2-1.2-1.6-3.2-2.3-3.1c-4.3,0.5-9.9-3.5-12.5,3.7c-0.4,1.1-3.2,1.3-5.7,2.1V54.7
	c2.2,0.5,5.2,0.7,5.4,1.4c1.5,6.3,6.4,4.7,10.2,4.4c1.7-0.1,4.7-2.1,4.7-3.3c0-4.2,0.1-9.1-1.9-12.4c-1.8-2.9-9.7,0.1-12.6,3.5
	c-1.1,1.3-3.4,1.5-6.4,2.7c0-9,0.3-16.6-0.2-24.1c-0.2-2.3-2.1-5.6-4.1-6.6C125,14.7,114,9.5,103,4.7c-2.1-0.9-5.5-0.9-7.6,0.2
	c-11.5,5.6-22.6,11.7-34.1,17.4c-3.4,1.7-4.5,4-4.2,7.6c0.4,5.1,0.6,10.2,0.5,15.3c0,1.6-1.1,3.3-1.7,4.9c-1.3-1.1-2.6-2.2-3.9-3.2
	c-1.2-0.9-2.3-2.4-3.7-2.6C39,42.8,37.7,43.9,38,53.6c0.1,2.4,1.8,6.7,2.4,6.6c4.1-0.5,9.5,3.7,12-3.1c0.4-1,2.3-2.1,3.3-1.9
	c0.9,0.1,2.1,2,2.2,3c0.2,12.1,0.1,24.1,0.1,38.1c-2.5-1.9-4.1-3.5-6-4.4c-2.6-1.2-5.5-2.2-8.3-2.4c-1.8-0.2-5.2,1.1-5.2,2
	c-0.5,4.4-0.9,9.1,0.5,13.1c0.5,1.3,6.2,1.2,9.5,1.1c1.2,0,2.4-1.7,3.7-2.5c1.8-1.3,3.7-2.6,5.5-3.9c0.6,0.4,1.1,0.8,1.7,1.3v40.6
	c-1.9-1.4-3.3-2.5-4.7-3.5c-1.5-1.1-2.9-3-4.4-3.2c-9.6-1.1-10.1-0.6-9.7,9.9c0.1,2.2,2,6.2,3,6.1c3.7-0.1,8.5,2.9,11.1-2.6
	c0.6-1.2,2.3-2,3.4-3c0.8,1.5,2,2.8,2.4,4.4C62,155.2,62.8,161.3,64.7,167z"/>
</svg>
